<svg width="236" height="236" viewBox="0 0 236 236" fill="none" xmlns="http://www.w3.org/2000/svg">
<path d="M186.833 29.5H49.1667C38.3051 29.5 29.5 38.3051 29.5 49.1667V186.833C29.5 197.695 38.3051 206.5 49.1667 206.5H186.833C197.695 206.5 206.5 197.695 206.5 186.833V49.1667C206.5 38.3051 197.695 29.5 186.833 29.5Z" stroke="#6117FF" stroke-width="10" stroke-linecap="round" stroke-linejoin="round"/>
<path d="M83.5835 98.3333C91.7297 98.3333 98.3335 91.7295 98.3335 83.5833C98.3335 75.4371 91.7297 68.8333 83.5835 68.8333C75.4373 68.8333 68.8335 75.4371 68.8335 83.5833C68.8335 91.7295 75.4373 98.3333 83.5835 98.3333Z" stroke="#6117FF" stroke-width="10" stroke-linecap="round" stroke-linejoin="round"/>
<path d="M206.5 147.5L157.333 98.3333L49.1665 206.5" stroke="#6117FF" stroke-width="10" stroke-linecap="round" stroke-linejoin="round"/>
</svg>
