<svg width="757" height="753" viewBox="0 0 757 753" fill="none" xmlns="http://www.w3.org/2000/svg">
<path d="M434 366.4V626.4C434 719.2 456.4 749.6 546.8 749.6C563.6 749.6 625.2 749.6 642.8 749.6C722.8 749.6 746.8 711.2 756.4 571.2C731.6 564.8 689.2 548 669.2 532C665.2 641.6 661.2 659.2 634.8 659.2C620.4 659.2 573.2 659.2 561.2 659.2C534.8 659.2 530.8 655.2 530.8 626.4V366.4H434ZM218 370.4C207.6 508.8 190.8 612 0.399902 668.8C21.1999 688.8 48.3999 728 58.7999 752.8C274.8 680.8 307.6 545.6 320.4 370.4H218ZM78.7999 67.1999C114 130.4 150 213.6 161.2 266.4L254.8 228.8C241.2 175.2 202 95.1999 165.2 35.1999L78.7999 67.1999ZM596.4 28.7999C576.4 92.7999 537.2 176.8 504.4 229.6L588.4 261.6C622 212 663.6 135.2 698.8 63.9999L596.4 28.7999ZM21.1999 294.4V384.8H744.4V294.4H21.1999ZM330 0.799927V331.2H427.6V0.799927H330Z" fill="#4E4E4E"/>
</svg>
